<?xml version="1.0" encoding="utf-8"?>
<!-- Generator: Adobe Illustrator 22.0.0, SVG Export Plug-In . SVG Version: 6.00 Build 0)  -->
<svg version="1.1" id="Ñëîé_1" xmlns="http://www.w3.org/2000/svg" xmlns:xlink="http://www.w3.org/1999/xlink" x="0px" y="0px"
	 viewBox="0 0 278.9 450" style="enable-background:new 0 0 278.9 450;" xml:space="preserve">
<style type="text/css">
	.st0{display:none;fill:#24126A;}
	.st1{fill:#42E8E0;}
	.st2{opacity:0.11;}
	.st3{fill:url(#SVGID_1_);}
	.st4{fill:url(#SVGID_2_);}
	.st5{fill:url(#SVGID_3_);}
	.st6{opacity:0.2;fill:#180D5B;}
	.st7{fill:#160A5B;}
	.st8{fill:#24126A;}
	.st9{fill:#453C9E;}
	.st10{fill:url(#SVGID_4_);}
	.st11{fill:url(#SVGID_5_);}
	.st12{fill:#F0F6FF;}
	.st13{fill:#8C6658;}
	.st14{fill:#32267A;}
	.st15{fill:#4846A5;}
	.st16{fill:#231F20;}
	.st17{fill:#C4CCD6;}
	.st18{fill:#754E45;}
	.st19{fill:url(#SVGID_6_);}
	.st20{fill:#111010;}
	.st21{display:none;}
	.st22{display:inline;fill:#2842A2;}
	.st23{display:inline;fill:#42E8E0;}
	.st24{font-family:'MyriadPro-Regular';}
	.st25{font-size:13.318px;}
</style>
<rect class="st0" width="278.7" height="450"/>
<g>
	<g>
		<g>
			<path class="st1" d="M234.3,330.4"/>
		</g>
	</g>
	<g>
		<g>
			<g class="st2">
				<linearGradient id="SVGID_1_" gradientUnits="userSpaceOnUse" x1="30.1251" y1="299.7316" x2="246.6575" y2="299.7316">
					<stop  offset="0" style="stop-color:#5761D7"/>
					<stop  offset="7.257640e-02" style="stop-color:#5472D8"/>
					<stop  offset="0.2791" style="stop-color:#4E9CDB"/>
					<stop  offset="0.4801" style="stop-color:#49BDDD"/>
					<stop  offset="0.6715" style="stop-color:#45D5DF"/>
					<stop  offset="0.8493" style="stop-color:#43E3E0"/>
					<stop  offset="1" style="stop-color:#42E8E0"/>
				</linearGradient>
				<path class="st3" d="M146.8,240.6c-5.1-3-11.5-3-16.6,0l-98.9,57c-1.6,0.9-1.6,3.1,0,4l99.7,57.6c4.5,2.6,10.1,2.6,14.6,0
					l99.9-57.5c1.6-0.9,1.6-3.1,0-4L146.8,240.6z"/>
			</g>
			<g class="st2">
				<linearGradient id="SVGID_2_" gradientUnits="userSpaceOnUse" x1="30.1251" y1="299.7316" x2="246.6575" y2="299.7316">
					<stop  offset="0" style="stop-color:#5761D7"/>
					<stop  offset="7.257640e-02" style="stop-color:#5472D8"/>
					<stop  offset="0.2791" style="stop-color:#4E9CDB"/>
					<stop  offset="0.4801" style="stop-color:#49BDDD"/>
					<stop  offset="0.6715" style="stop-color:#45D5DF"/>
					<stop  offset="0.8493" style="stop-color:#43E3E0"/>
					<stop  offset="1" style="stop-color:#42E8E0"/>
				</linearGradient>
				<path class="st4" d="M146.8,240.6c-5.1-3-11.5-3-16.6,0l-98.9,57c-1.6,0.9-1.6,3.1,0,4l99.7,57.6c4.5,2.6,10.1,2.6,14.6,0
					l99.9-57.5c1.6-0.9,1.6-3.1,0-4L146.8,240.6z"/>
			</g>
			<linearGradient id="SVGID_3_" gradientUnits="userSpaceOnUse" x1="30.1264" y1="329.7534" x2="246.6561" y2="329.7534">
				<stop  offset="0" style="stop-color:#5761D7"/>
				<stop  offset="7.257640e-02" style="stop-color:#5472D8"/>
				<stop  offset="0.2791" style="stop-color:#4E9CDB"/>
				<stop  offset="0.4801" style="stop-color:#49BDDD"/>
				<stop  offset="0.6715" style="stop-color:#45D5DF"/>
				<stop  offset="0.8493" style="stop-color:#43E3E0"/>
				<stop  offset="1" style="stop-color:#42E8E0"/>
			</linearGradient>
			<path class="st5" d="M245.5,299.3l-99.9,57.5c-4.5,2.6-10.1,2.6-14.6,0l-99.7-57.6c-0.4-0.2-0.7-0.5-0.9-0.9
				c-0.6,1.1-0.3,2.5,0.9,3.2l99.7,57.6c4.5,2.6,10.1,2.6,14.6,0l99.9-57.5c1.2-0.7,1.5-2.1,0.9-3.2
				C246.2,298.8,245.9,299.1,245.5,299.3z"/>
		</g>
	</g>
	<ellipse class="st6" cx="138.4" cy="299.7" rx="54.4" ry="31.4"/>
	<g>
		<path class="st7" d="M117.7,273.1c0,0-1.3,1.4-2.7,3c-1.4,1.6-5.2,3.9-6.9,4.9c-1.6,1-9.1,6.6-10.6,12.2c-1.6,5.5,3.8,6.3,9.2,5.3
			c5.4-1,10.5-6,12-7.8c1.5-1.8,6.6-5.9,13.3-9.4c6.7-3.5,2.6-8.1,2.6-8.1L117.7,273.1z"/>
		<path class="st7" d="M167.2,289.6c0,0,1.1,2.5,1.4,5.7c0.3,3.2,0.8,10.2,0.9,12.2c0.2,2,0.2,7-3.3,11.8c-3.6,4.8-5.4,6.6-10.2,4.8
			c-4.8-1.9-4.7-9.9-3.8-14s1.6-13.3,1.5-14.3c-0.1-1,0.3-1.6,0.3-1.6L167.2,289.6z"/>
		<path class="st8" d="M101.3,178.9c0,0,1,36.6,9.5,56.1c0,0,6.1,17.1,6.9,37.5c0,0-1.4,3.5,0.6,6.4c2,2.9,14.5,5.5,16.6-3.9
			c2.1-9.4,1.3-26.9-1-34.2c-2.3-7.3,0.8-27.4,0.8-27.4s3.4,2.2,7.9,16.7c4.5,14.5,7.8,20,9.3,24c1.5,4,3,28.5,2,40.5
			c0,0,10.1,1.4,13.1-3.4c2.9-4.9,3.9-29.9,3.2-37.9c-0.7-8-4.1-33.6-3.6-41.6c0.5-7.9,2.1-14.4,0.3-22.3
			c-1.8-7.9-55.4-25.5-55.4-25.5L101.3,178.9z"/>
		<path class="st7" d="M166.6,211.4c0.5-7.9,2.1-14.4,0.3-22.3c-0.7-3-8.7-7.3-18.4-11.6c-16.4-1.5-37.2-3.2-38.6-3
			c-1.3,0.2-4.7,1.5-7.5,2.6l-1.1,1.7c0,0,0.1,2.2,0.3,5.9c3.8,1.1,11.2,0,11.2,0c1,2.6,7.4,11.7,15.4,15.6
			c7.9,3.9,31.2,2.6,32.5,4.1c1.3,1.5,1.6,21.5,1.4,24.1c-0.1,2.5,2.2,18.6,4.4,32.8c2.1,14-1.1,30.9-1.2,31.5
			c0.8-0.5,1.4-1.1,1.9-1.8c2.9-4.9,3.9-29.9,3.2-37.9C169.5,245,166.1,219.4,166.6,211.4z"/>
		<path class="st9" d="M119.2,59.1c0,0-11.9,2.7-15.9,3.6c-0.7,0.2-1.2,0.6-1.4,1.3c-1.2,2.9-4,12-1.9,25.2
			c2.7,16.3,1.8,27.2,1.8,27.2l-5.5,28.6c0,0-6.9,27.2-6.3,28c0.6,0.7,15.9,12.4,20.7,10.8c4.8-1.6,3.2-4.3,3.2-4.3
			s3.9,19.7,21,19.5c17.2-0.2,31.2-0.1,34.1-7.1c2.9-6.9-0.8-36.1-3.8-47.6c-3-11.5-10.2-34.6-10.2-34.6l25.1-27.8l-21.5-16.4
			c0,0-5.1-9.5-7.2-10.7c-2.1-1.2-3.2-0.2-3.2-0.2L119.2,59.1z"/>
		<g>
			
				<linearGradient id="SVGID_4_" gradientUnits="userSpaceOnUse" x1="59.0802" y1="219.4782" x2="81.9289" y2="219.4782" gradientTransform="matrix(0.9983 5.790000e-02 -5.790000e-02 0.9983 43.9585 -44.3672)">
				<stop  offset="0" style="stop-color:#5761D7"/>
				<stop  offset="7.257640e-02" style="stop-color:#5472D8"/>
				<stop  offset="0.2791" style="stop-color:#4E9CDB"/>
				<stop  offset="0.4801" style="stop-color:#49BDDD"/>
				<stop  offset="0.6715" style="stop-color:#45D5DF"/>
				<stop  offset="0.8493" style="stop-color:#43E3E0"/>
				<stop  offset="1" style="stop-color:#42E8E0"/>
			</linearGradient>
			<path class="st10" d="M111,177.5c0,1-0.6,2.5-3.6,3.5c-3.3,1.1-11.5-3.8-16.8-7.6c2.7,2.2,15.8,11.8,20.2,10.3
				c1-0.3,1.6-0.7,2.2-1.1C111.9,180.5,111.3,178.6,111,177.5z"/>
			
				<linearGradient id="SVGID_5_" gradientUnits="userSpaceOnUse" x1="91.3819" y1="226.8869" x2="139.1839" y2="226.8869" gradientTransform="matrix(0.9983 5.790000e-02 -5.790000e-02 0.9983 43.9585 -44.3672)">
				<stop  offset="0" style="stop-color:#5761D7"/>
				<stop  offset="7.257640e-02" style="stop-color:#5472D8"/>
				<stop  offset="0.2791" style="stop-color:#4E9CDB"/>
				<stop  offset="0.4801" style="stop-color:#49BDDD"/>
				<stop  offset="0.6715" style="stop-color:#45D5DF"/>
				<stop  offset="0.8493" style="stop-color:#43E3E0"/>
				<stop  offset="1" style="stop-color:#42E8E0"/>
			</linearGradient>
			<path class="st11" d="M168.9,189.6c-3.1,7.3-17.9,7.3-36,7.5c-4.6,0.1-8.3-1.3-11.3-3.2c3.1,3,7.4,5.2,13.3,5.2
				c17.2-0.2,31.2-0.1,34.1-7.1c1-2.3,1.2-7,1-12.6C170.1,183.9,169.7,187.6,168.9,189.6z"/>
		</g>
		<path class="st12" d="M150.9,54.6c0,0,4.4,5.3-1.9,12.5c-3.9,4.4-10.6,13.9-16.3,23.8c-3.6,6.2-6.8,9.5-8.7,14.8
			c0,0-0.3-6.3-0.5-16c-0.2-9.2-0.4-18.7,0.1-21.1C124.4,63.5,146.1,52.2,150.9,54.6z"/>
		<path class="st13" d="M134.5,70.5c0,0-2.2,1.4-3,1.3c-0.8-0.1-3.3-2.5-3.3-2.5s-6.2-0.1-6.9-2.8c-0.7-2.7-1.1-5.4-1.8-6.7
			c-0.6-1.4-3.3-8-3.3-10.7c0-2.7,0.1-7.5-1.1-10.1c-1.2-2.6-2.7-28.1,21.9-27.4c24.7,0.7,17,26.3,17,26.3s1.8,0.8,0.7,4.1
			c-1.1,3.3-1.3,3.6-1.9,5.3c-0.6,1.6-0.8,2.7-2.4,4l-0.4,3c0,0,1.2,4.6-1.9,9.2C145.2,67.9,134.5,70.5,134.5,70.5z"/>
		<path class="st14" d="M102.6,63c0,0-2.6,0.4-11.2,21.9c-4.8,12-12.1,24.4-13.7,33.3c-1.6,8.9-0.7,18.4,1.1,19.1
			c1.7,0.6,32.4,12.1,42,15.7c0.5,0.2,1.1-0.1,1.2-0.7l2.6-14.8l-19-7.4c0,0-3.6-4.4-7-6.1c0,0,3.8-7,3.6-9
			c-0.2-1.9,0.3-21.8-1.9-29.9C98.1,77.2,102.6,63,102.6,63z"/>
		<path class="st13" d="M113.8,119.8c0,0-2.6-1.8-3.3-2c-0.6-0.3-4.2-1.4-4.8-1.7c-0.5-0.2-2.5-0.1-3.6,0.1c-0.4,0-0.7,0.3-0.9,0.6
			c-0.8,1.5-3.1,5.9-2.8,7.5c0,0,6.3,4,7,5.8l1,0.2C106.5,130.2,110.7,121.1,113.8,119.8z"/>
		<path class="st8" d="M165.2,144.3c-0.7-2.8-1.7-6.2-2.7-9.8L123.9,151c0,0,11.5,14.2,31.8,13.3c5.5-0.2,9.6-2.2,12.5-4
			C167.3,154,166.2,148.2,165.2,144.3z"/>
		<path class="st8" d="M180.1,81.9c0,0-10.2,1.4-18.4,14.4c-8.2,13-14.2,28.1-14.2,28.1l-0.3,1.7c-0.7,4.4-5.5,7-9.6,5.1
			c-8.7-3.9-21.5-9.7-23.9-11.5c0,0-7.7,4.2-9.8,14.3c-1.7,8-1.2,8-1.2,8s34.2,16,47.5,15.8c13.2-0.2,30-43.6,31.8-52.6
			C183.9,96.3,185.9,84.5,180.1,81.9z"/>
		<path class="st15" d="M180.1,81.9c0,0-10.2,1.4-18.4,14.4c-8.2,13-14.2,28.1-14.2,28.1l-0.3,1.7c-0.7,4.4-5.5,7-9.6,5.1
			c-8.7-3.9-21.5-9.7-23.9-11.5c0,0-7.7,4.2-9.8,14.3c-1.7,8-1.2,8-1.2,8s34.2,16,47.5,15.8c13.2-0.2,30-43.6,31.8-52.6
			C183.9,96.3,185.9,84.5,180.1,81.9z"/>
		<path class="st9" d="M142.6,133.3c0,0,4.3,4,6.2,1.8c1.9-2.2,1.3-2.5,1.3-2.5s3.9,0,4.4-2.5c0.5-2.4,2.4-1.1,2.5-3.9
			c0.1-2.7-3.1-2.2-3.1-2.2L142.6,133.3z"/>
		<path class="st13" d="M137.4,131.1c0,0,1.2-1.1,2.7-2.4c1.5-1.3,4-6.7,4.4-7.1c0.4-0.5,5.6-4.4,8.1-4.5c2.5-0.1,0.6,2.7,0.1,3.1
			c-0.6,0.4-3,1.6-3,1.6s-2.5,2.1-2.8,2.4c-0.3,0.3,7-0.5,8.1,0.2c1.1,0.7,0.9,2.6,0.1,3.1c-0.8,0.5-1.4,0.5-1.4,0.5
			s0.8,2.2-1.4,3.2c-2.2,1-2.7,0.4-2.7,0.4s-0.2,3.8-3.8,3L137.4,131.1z"/>
		<path class="st16" d="M114.6,25.9c0,0-3.2,10.3,5.3,7.3c8.5-2.9,16.2-7.8,18.8-5.9c2,1.4,1.9,5.8,1.8,7.7
			c-0.1,0.7,0.1,1.4,0.5,1.9l2.5,3.7c0.3,0.4,0.5,0.9,0.5,1.4l0.2,2.5c0,0.6,0.6,1.1,1.2,1.2l0.6,0c0.6,0,1.2-0.4,1.3-1.1l0.7-3.7
			c0,0,2-5,6.2-3c0,0,2.8-3.8,1.9-11.9c-0.9-8.1-4.6-16.5-20.5-17.9C119.6,6.8,114.6,25.9,114.6,25.9z"/>
		<path class="st17" d="M138.9,79.6l-2.4-1.8c0,0-2.2,1.8-3.1,3.8c-0.9,1.9,0,8.1,0,8.1l-0.7,1.2l-0.9-1.6l-0.8-7.3
			c0,0,0.8-5.4,0.9-5.5c0.1-0.1,4.6,0.5,4.6,0.5S138.1,78.1,138.9,79.6z"/>
		<path class="st17" d="M127.5,72.3c0,0-2.5,0.2-3.7,1.1c0,0,2.7,0.1,3.1,0.2C127.3,73.6,127.5,72.3,127.5,72.3z"/>
		<path class="st8" d="M132.3,72.9l4.3,4c0,0-3.7,1.7-4.8,5.1c0,0-4.6,0.9-5.1-0.8c-0.4-1.7,0-5.9-0.5-7.8
			C125.6,71.4,132.3,72.9,132.3,72.9z"/>
		<path class="st8" d="M126.9,81c0,0-0.8,3.5-1.7,4.9c-0.9,1.4-1.8,3.1-1.8,3.1l0.1,20.5c0,0,7.5-15.5,9.2-18.7c0,0-0.3-7.5-1-8.9
			C131.1,80.5,126.9,81,126.9,81z"/>
		<path class="st18" d="M147.1,50.8c-4.9,14.3-18.9,18.5-18.9,18.5s2.5,2.4,3.3,2.5c0.8,0.1,3-1.3,3-1.3s10.6-2.6,13.7-7.1
			c3.1-4.5,1.9-9.2,1.9-9.2l0.4-3C148.3,52,147.1,50.8,147.1,50.8z"/>
		<path class="st8" d="M158.4,67.5c0,0-2,6.7-2.2,7c-0.3,0.3-4.9-0.3-4.9-0.3l2.3,4.3c0,0-23.4,25.1-28.3,38.6
			c0,0,11.1-17.1,30.6-37.6l-2.8-4.2l4.8,0.9L158.4,67.5z"/>
		<path class="st8" d="M119.9,61.5l-1.2,1.4l1.5,1.4l-4.3,3.9c0,0-1.3,27.5,4,45.7c0,0-7.2-16.7-5.6-46.4l4.7-3.2l-1.5-1.5
			L119.9,61.5z"/>
		<path class="st7" d="M134.7,213.2c0,0,0.1,0,0.2,0.1l-6.1-6.5c2.8,4-0.4,22-0.8,26.2c-0.3,4.1,3.2,12.7,4.6,22.7
			c1.3,10-1.4,24.3-1.4,24.3c1.7-1,3.1-2.7,3.7-5.3c2.1-9.4,1.3-26.9-1-34.2C131.6,233.4,134.7,213.2,134.7,213.2z"/>
		
			<linearGradient id="SVGID_6_" gradientUnits="userSpaceOnUse" x1="69.4153" y1="166.2781" x2="147.1609" y2="166.2781" gradientTransform="matrix(0.9983 5.790000e-02 -5.790000e-02 0.9983 43.9585 -44.3672)">
			<stop  offset="0" style="stop-color:#5761D7"/>
			<stop  offset="7.257640e-02" style="stop-color:#5472D8"/>
			<stop  offset="0.2791" style="stop-color:#4E9CDB"/>
			<stop  offset="0.4801" style="stop-color:#49BDDD"/>
			<stop  offset="0.6715" style="stop-color:#45D5DF"/>
			<stop  offset="0.8493" style="stop-color:#43E3E0"/>
			<stop  offset="1" style="stop-color:#42E8E0"/>
		</linearGradient>
		<path class="st19" d="M150.2,157.9c13.2-0.2,30-43.6,31.8-52.6c0.3-1.5,0.6-3.1,0.9-4.7c0,0.1-3.5,9.5-6.8,17.8
			c-3.3,8.4-21,33.8-30,35.4c-8.1,1.5-37.4-12.2-43.1-14.9c-0.5,3.1-0.3,3.1-0.3,3.1S137,158.1,150.2,157.9z"/>
		<path class="st20" d="M145.9,45.7c0.6,0,1.2-0.4,1.3-1.1l0.7-3.7c0,0,2-5,6.2-3c0,0,2.7-3.6,1.9-11.3c-4.7,7-15.1,10.3-15.1,10.3
			l2.5,3.7c0.3,0.4,0.5,0.9,0.5,1.4l0.2,2.5c0,0.6,0.6,1.1,1.2,1.2L145.9,45.7z"/>
	</g>
	<g>
		<g>
			<g>
				<g>
				</g>
				<g>
				</g>
			</g>
		</g>
		<g>
			<g>
				<g>
				</g>
				<g>
				</g>
			</g>
		</g>
		<g>
			<g>
				<g>
				</g>
				<g>
				</g>
			</g>
		</g>
	</g>
	<g>
		<g>
		</g>
		<g>
		</g>
	</g>
	<g>
		<g>
		</g>
		<g>
		</g>
	</g>
</g>
<g id="botao" class="st21">
	<path class="st22" d="M195.8,415H83.2c-6.4,0-11.7-5.2-11.7-11.7V402c0-6.4,5.2-11.7,11.7-11.7h112.6c6.4,0,11.7,5.2,11.7,11.7v1.3
		C207.4,409.7,202.2,415,195.8,415z"/>
	<text transform="matrix(1 0 0 1 93.4088 406.917)" class="st23 st24 st25">Iniciar Ministério</text>
</g>
</svg>
